<svg xmlns="http://www.w3.org/2000/svg" xmlns:xlink="http://www.w3.org/1999/xlink" width="362" height="314" viewBox="0 0 362 314"><defs><filter id="a" x="0" y="0" width="362" height="314" filterUnits="userSpaceOnUse"><feOffset dx="3" dy="3" input="SourceAlpha"/><feGaussianBlur stdDeviation="10" result="b"/><feFlood flood-color="#363636" flood-opacity="0.4"/><feComposite operator="in" in2="b"/><feComposite in="SourceGraphic"/></filter><filter id="c" x="45" y="68" width="158" height="136" filterUnits="userSpaceOnUse"><feOffset dx="3" dy="3" input="SourceAlpha"/><feGaussianBlur stdDeviation="10" result="d"/><feFlood flood-opacity="0.161"/><feComposite operator="in" in2="d"/><feComposite in="SourceGraphic"/></filter><filter id="e" x="41.5" y="35.5" width="279" height="75" filterUnits="userSpaceOnUse"><feOffset dx="3" dy="3" input="SourceAlpha"/><feGaussianBlur stdDeviation="10" result="f"/><feFlood flood-opacity="0.161"/><feComposite operator="in" in2="f"/><feComposite in="SourceGraphic"/></filter><filter id="g" x="173.5" y="65.5" width="150" height="75" filterUnits="userSpaceOnUse"><feOffset dx="3" dy="3" input="SourceAlpha"/><feGaussianBlur stdDeviation="10" result="h"/><feFlood flood-opacity="0.161"/><feComposite operator="in" in2="h"/><feComposite in="SourceGraphic"/></filter><filter id="i" x="172.5" y="99.5" width="150" height="75" filterUnits="userSpaceOnUse"><feOffset dx="3" dy="3" input="SourceAlpha"/><feGaussianBlur stdDeviation="10" result="j"/><feFlood flood-opacity="0.161"/><feComposite operator="in" in2="j"/><feComposite in="SourceGraphic"/></filter><filter id="k" x="172.5" y="133.5" width="150" height="75" filterUnits="userSpaceOnUse"><feOffset dx="3" dy="3" input="SourceAlpha"/><feGaussianBlur stdDeviation="10" result="l"/><feFlood flood-opacity="0.161"/><feComposite operator="in" in2="l"/><feComposite in="SourceGraphic"/></filter><filter id="m" x="172.5" y="166.5" width="150" height="75" filterUnits="userSpaceOnUse"><feOffset dx="3" dy="3" input="SourceAlpha"/><feGaussianBlur stdDeviation="10" result="n"/><feFlood flood-opacity="0.161"/><feComposite operator="in" in2="n"/><feComposite in="SourceGraphic"/></filter><filter id="o" x="172.5" y="196.5" width="150" height="75" filterUnits="userSpaceOnUse"><feOffset dx="3" dy="3" input="SourceAlpha"/><feGaussianBlur stdDeviation="10" result="p"/><feFlood flood-opacity="0.161"/><feComposite operator="in" in2="p"/><feComposite in="SourceGraphic"/></filter><filter id="q" x="48.5" y="196.5" width="150" height="75" filterUnits="userSpaceOnUse"><feOffset dx="3" dy="3" input="SourceAlpha"/><feGaussianBlur stdDeviation="10" result="r"/><feFlood flood-opacity="0.161"/><feComposite operator="in" in2="r"/><feComposite in="SourceGraphic"/></filter><filter id="s" x="48.5" y="166.5" width="150" height="75" filterUnits="userSpaceOnUse"><feOffset dx="3" dy="3" input="SourceAlpha"/><feGaussianBlur stdDeviation="10" result="t"/><feFlood flood-opacity="0.161"/><feComposite operator="in" in2="t"/><feComposite in="SourceGraphic"/></filter></defs><g transform="translate(-58 -74)"><g transform="matrix(1, 0, 0, 1, 58, 74)" filter="url(#a)"><g transform="translate(27 27)" fill="rgba(255,255,255,0.3)" stroke="#fff" stroke-width="15"><path d="M30,0H272a30,30,0,0,1,30,30V244a10,10,0,0,1-10,10H80A80,80,0,0,1,0,174V30A30,30,0,0,1,30,0Z" stroke="none"/><path d="M30,7.5H272A22.5,22.5,0,0,1,294.5,30V244a2.5,2.5,0,0,1-2.5,2.5H80A72.5,72.5,0,0,1,7.5,174V30A22.5,22.5,0,0,1,30,7.5Z" fill="none"/></g></g><g transform="matrix(1, 0, 0, 1, 58, 74)" filter="url(#c)"><g transform="translate(72 95)" fill="rgba(255,255,255,0.5)" stroke="#fff" stroke-width="15"><rect width="98" height="76" rx="20" stroke="none"/><rect x="7.5" y="7.5" width="83" height="61" rx="12.5" fill="none"/></g></g><g transform="matrix(1, 0, 0, 1, 58, 74)" filter="url(#e)"><line x2="204" transform="translate(76 70)" fill="none" stroke="#fff" stroke-linecap="round" stroke-width="15"/></g><g transform="matrix(1, 0, 0, 1, 58, 74)" filter="url(#g)"><line x2="75" transform="translate(208 100)" fill="none" stroke="#fff" stroke-linecap="round" stroke-width="15"/></g><g transform="matrix(1, 0, 0, 1, 58, 74)" filter="url(#i)"><line x2="75" transform="translate(207 134)" fill="none" stroke="#fff" stroke-linecap="round" stroke-width="15"/></g><g transform="matrix(1, 0, 0, 1, 58, 74)" filter="url(#k)"><line x2="75" transform="translate(207 168)" fill="none" stroke="#fff" stroke-linecap="round" stroke-width="15"/></g><g transform="matrix(1, 0, 0, 1, 58, 74)" filter="url(#m)"><line x2="75" transform="translate(207 201)" fill="none" stroke="#fff" stroke-linecap="round" stroke-width="15"/></g><g transform="matrix(1, 0, 0, 1, 58, 74)" filter="url(#o)"><line x2="75" transform="translate(207 231)" fill="none" stroke="#fff" stroke-linecap="round" stroke-width="15"/></g><g transform="matrix(1, 0, 0, 1, 58, 74)" filter="url(#q)"><line x2="75" transform="translate(83 231)" fill="none" stroke="#fff" stroke-linecap="round" stroke-width="15"/></g><g transform="matrix(1, 0, 0, 1, 58, 74)" filter="url(#s)"><line x2="75" transform="translate(83 201)" fill="none" stroke="#fff" stroke-linecap="round" stroke-width="15"/></g></g></svg>